<svg width="295" height="76" viewBox="0 0 295 76" fill="none" xmlns="http://www.w3.org/2000/svg">
<path d="M62.7715 57.0777L62.0996 21.2252L30.7148 3.8795L0 22.3883L0.672852 58.2408L32.0566 75.5856L62.7715 57.0777ZM3.31055 56.6529L2.69434 23.8785L30.7715 6.9586L59.4619 22.816L60.0762 55.5885L31.999 72.5074L3.31055 56.6529Z" fill="#32B6E4"/>
<path d="M77.2375 48.4848L66.158 12.1212H72.0292L79.889 39.9621H80.2678L88.033 12.1212H93.9989L101.669 39.8674H102.048L109.908 12.1212H115.779L104.7 48.4848H99.2072L91.2527 20.5492H90.6845L82.7299 48.4848H77.2375Z" fill="#F49625"/>
<path d="M133.866 49.3371C131.562 49.3371 129.471 48.9031 127.593 48.035C125.714 47.1512 124.223 45.8807 123.118 44.2235C122.013 42.5505 121.461 40.5303 121.461 38.1629C121.461 36.0795 121.871 34.3908 122.692 33.0966C123.513 31.7866 124.61 30.7607 125.983 30.0189C127.356 29.2771 128.871 28.7247 130.528 28.3617C132.201 27.983 133.882 27.6831 135.571 27.4621C137.78 27.178 139.572 26.965 140.945 26.8229C142.334 26.6651 143.344 26.4047 143.975 26.0417C144.622 25.6787 144.946 25.0473 144.946 24.1477V23.9583C144.946 21.6225 144.307 19.8074 143.028 18.5133C141.766 17.2191 139.848 16.572 137.275 16.572C134.608 16.572 132.517 17.1559 131.002 18.3239C129.487 19.4918 128.421 20.7386 127.806 22.0644L122.503 20.1705C123.45 17.9609 124.712 16.2405 126.291 15.0095C127.885 13.7626 129.621 12.8946 131.499 12.4053C133.393 11.9003 135.255 11.6477 137.086 11.6477C138.254 11.6477 139.595 11.7898 141.111 12.0739C142.642 12.3422 144.117 12.9025 145.538 13.7547C146.974 14.607 148.166 15.8933 149.113 17.6136C150.059 19.334 150.533 21.6383 150.533 24.5265V48.4848H144.946V43.5606H144.662C144.283 44.3497 143.652 45.1941 142.768 46.0938C141.884 46.9934 140.708 47.7588 139.24 48.3902C137.773 49.0215 135.981 49.3371 133.866 49.3371ZM134.719 44.3182C136.928 44.3182 138.791 43.8842 140.306 43.0161C141.837 42.148 142.989 41.0275 143.762 39.6544C144.551 38.2812 144.946 36.8371 144.946 35.322V30.2083C144.709 30.4924 144.188 30.7528 143.383 30.9896C142.594 31.2105 141.679 31.4078 140.637 31.5814C139.611 31.7393 138.609 31.8813 137.631 32.0076C136.668 32.1181 135.887 32.2128 135.287 32.2917C133.835 32.4811 132.477 32.7888 131.215 33.215C129.968 33.6253 128.958 34.2487 128.184 35.0852C127.427 35.9059 127.048 37.0265 127.048 38.447C127.048 40.3883 127.766 41.8561 129.202 42.8504C130.655 43.8289 132.493 44.3182 134.719 44.3182Z" fill="#F49625"/>
<path d="M176.545 12.1212V16.8561H157.7V12.1212H176.545ZM163.193 3.40909H168.78V38.0682C168.78 39.6465 169.009 40.8302 169.466 41.6193C169.94 42.3927 170.54 42.9135 171.266 43.1818C172.007 43.4343 172.789 43.5606 173.609 43.5606C174.225 43.5606 174.73 43.529 175.125 43.4659C175.519 43.387 175.835 43.3239 176.072 43.2765L177.208 48.2955C176.829 48.4375 176.3 48.5795 175.622 48.7216C174.943 48.8794 174.083 48.9583 173.041 48.9583C171.463 48.9583 169.916 48.619 168.401 47.9403C166.902 47.2617 165.655 46.2279 164.661 44.839C163.682 43.4501 163.193 41.6982 163.193 39.5833V3.40909Z" fill="#F49625"/>
<path d="M195.65 49.3371C193.346 49.3371 191.255 48.9031 189.376 48.035C187.498 47.1512 186.007 45.8807 184.902 44.2235C183.797 42.5505 183.245 40.5303 183.245 38.1629C183.245 36.0795 183.655 34.3908 184.476 33.0966C185.297 31.7866 186.394 30.7607 187.767 30.0189C189.14 29.2771 190.655 28.7247 192.312 28.3617C193.985 27.983 195.666 27.6831 197.355 27.4621C199.564 27.178 201.356 26.965 202.729 26.8229C204.118 26.6651 205.128 26.4047 205.759 26.0417C206.406 25.6787 206.73 25.0473 206.73 24.1477V23.9583C206.73 21.6225 206.091 19.8074 204.812 18.5133C203.549 17.2191 201.632 16.572 199.059 16.572C196.392 16.572 194.301 17.1559 192.786 18.3239C191.27 19.4918 190.205 20.7386 189.59 22.0644L184.287 20.1705C185.233 17.9609 186.496 16.2405 188.074 15.0095C189.668 13.7626 191.405 12.8946 193.283 12.4053C195.177 11.9003 197.039 11.6477 198.87 11.6477C200.038 11.6477 201.379 11.7898 202.894 12.0739C204.425 12.3422 205.901 12.9025 207.322 13.7547C208.758 14.607 209.949 15.8933 210.896 17.6136C211.843 19.334 212.317 21.6383 212.317 24.5265V48.4848H206.73V43.5606H206.446C206.067 44.3497 205.436 45.1941 204.552 46.0938C203.668 46.9934 202.492 47.7588 201.024 48.3902C199.556 49.0215 197.765 49.3371 195.65 49.3371ZM196.502 44.3182C198.712 44.3182 200.574 43.8842 202.09 43.0161C203.62 42.148 204.773 41.0275 205.546 39.6544C206.335 38.2812 206.73 36.8371 206.73 35.322V30.2083C206.493 30.4924 205.972 30.7528 205.167 30.9896C204.378 31.2105 203.463 31.4078 202.421 31.5814C201.395 31.7393 200.393 31.8813 199.414 32.0076C198.452 32.1181 197.67 32.2128 197.071 32.2917C195.619 32.4811 194.261 32.7888 192.999 33.215C191.752 33.6253 190.742 34.2487 189.968 35.0852C189.211 35.9059 188.832 37.0265 188.832 38.447C188.832 40.3883 189.55 41.8561 190.986 42.8504C192.438 43.8289 194.277 44.3182 196.502 44.3182Z" fill="#F49625"/>
<path d="M223.272 48.4848V0H228.859V17.8977H229.333C229.743 17.2664 230.311 16.4615 231.037 15.483C231.779 14.4886 232.836 13.6048 234.21 12.8314C235.598 12.0423 237.477 11.6477 239.844 11.6477C242.906 11.6477 245.605 12.4132 247.941 13.9441C250.277 15.4751 252.099 17.6452 253.409 20.4545C254.719 23.2639 255.374 26.5783 255.374 30.3977C255.374 34.2487 254.719 37.5868 253.409 40.4119C252.099 43.2213 250.284 45.3993 247.964 46.946C245.644 48.477 242.969 49.2424 239.939 49.2424C237.603 49.2424 235.733 48.8557 234.328 48.0824C232.923 47.2932 231.842 46.4015 231.085 45.4072C230.327 44.3971 229.743 43.5606 229.333 42.8977H228.67V48.4848H223.272ZM228.765 30.303C228.765 33.0492 229.167 35.4719 229.972 37.571C230.777 39.6544 231.953 41.2879 233.499 42.4716C235.046 43.6395 236.94 44.2235 239.181 44.2235C241.517 44.2235 243.466 43.608 245.029 42.3769C246.607 41.13 247.791 39.4571 248.58 37.358C249.385 35.2431 249.787 32.8914 249.787 30.303C249.787 27.7462 249.393 25.4419 248.604 23.3902C247.83 21.3226 246.654 19.6891 245.076 18.4896C243.514 17.2743 241.549 16.6667 239.181 16.6667C236.908 16.6667 234.999 17.2427 233.452 18.3949C231.905 19.5312 230.737 21.1253 229.948 23.1771C229.159 25.2131 228.765 27.5884 228.765 30.303Z" fill="#F49625"/>
<path d="M279.167 49.2424C275.663 49.2424 272.641 48.4691 270.1 46.9223C267.574 45.3598 265.625 43.1818 264.252 40.3883C262.895 37.5789 262.216 34.3119 262.216 30.5871C262.216 26.8624 262.895 23.5795 264.252 20.7386C265.625 17.8819 267.535 15.6566 269.981 14.0625C272.444 12.4527 275.316 11.6477 278.599 11.6477C280.493 11.6477 282.363 11.9634 284.21 12.5947C286.056 13.226 287.737 14.2519 289.252 15.6723C290.767 17.077 291.975 18.9394 292.874 21.2595C293.774 23.5795 294.224 26.4362 294.224 29.8295V32.197H266.193V27.3674H288.542C288.542 25.3157 288.132 23.4848 287.311 21.875C286.506 20.2652 285.354 18.9946 283.854 18.0634C282.371 17.1323 280.619 16.6667 278.599 16.6667C276.373 16.6667 274.448 17.2191 272.822 18.3239C271.212 19.4129 269.973 20.8333 269.105 22.5852C268.237 24.3371 267.803 26.2153 267.803 28.2197V31.4394C267.803 34.1856 268.277 36.5136 269.224 38.4233C270.187 40.3172 271.52 41.7614 273.225 42.7557C274.929 43.7342 276.91 44.2235 279.167 44.2235C280.635 44.2235 281.961 44.0183 283.144 43.608C284.344 43.1818 285.378 42.5505 286.246 41.714C287.114 40.8617 287.784 39.8043 288.258 38.5417L293.656 40.0568C293.087 41.8876 292.133 43.4975 290.791 44.8864C289.449 46.2595 287.792 47.3327 285.819 48.1061C283.847 48.8636 281.629 49.2424 279.167 49.2424Z" fill="#F49625"/>
<path d="M33.7521 39.591L32.4188 66.2577L31.0854 39.591H33.7521Z" fill="#32B6E4"/>
<path d="M31.7388 38.4438L54.1974 26.7024L33.0988 40.7384L31.7388 38.4438Z" fill="#32B6E4"/>
<path d="M31.8301 40.7876L6.19678 26.7023L33.0074 38.3943L31.8301 40.7876Z" fill="#32B6E4"/>
<path d="M78.9045 56.4053L78.0011 56.661C77.9443 56.5104 77.8604 56.3641 77.7496 56.2221C77.6417 56.0772 77.494 55.9579 77.3065 55.8641C77.119 55.7704 76.8789 55.7235 76.5863 55.7235C76.1857 55.7235 75.8519 55.8158 75.5849 56.0005C75.3207 56.1823 75.1886 56.4138 75.1886 56.6951C75.1886 56.9451 75.2795 57.1425 75.4613 57.2874C75.6431 57.4323 75.9272 57.553 76.3136 57.6496L77.2852 57.8883C77.8704 58.0303 78.3065 58.2476 78.5934 58.5402C78.8803 58.83 79.0238 59.2036 79.0238 59.661C79.0238 60.036 78.9158 60.3712 78.6999 60.6667C78.4869 60.9621 78.1886 61.1951 77.805 61.3655C77.4215 61.536 76.9755 61.6212 76.467 61.6212C75.7994 61.6212 75.2468 61.4763 74.8093 61.1866C74.3718 60.8968 74.0948 60.4735 73.9783 59.9167L74.9329 59.678C75.0238 60.0303 75.1957 60.2945 75.4485 60.4706C75.7042 60.6468 76.038 60.7348 76.4499 60.7348C76.9187 60.7348 77.2908 60.6354 77.5664 60.4366C77.8448 60.2348 77.984 59.9934 77.984 59.7121C77.984 59.4848 77.9045 59.2945 77.7454 59.1411C77.5863 58.9848 77.342 58.8684 77.0124 58.7917L75.9215 58.536C75.3221 58.3939 74.8817 58.1738 74.6005 57.8755C74.3221 57.5743 74.1829 57.1979 74.1829 56.7462C74.1829 56.3769 74.2866 56.0502 74.494 55.7661C74.7042 55.482 74.9897 55.259 75.3505 55.0971C75.7141 54.9351 76.1261 54.8542 76.5863 54.8542C77.234 54.8542 77.7425 54.9962 78.1119 55.2803C78.484 55.5644 78.7482 55.9394 78.9045 56.4053Z" fill="#32B6E4"/>
<path d="M83.3842 54.9394V55.7917H79.9922V54.9394H83.3842ZM80.9808 53.3712H81.9865V59.6098C81.9865 59.8939 82.0277 60.107 82.1101 60.2491C82.1953 60.3883 82.3033 60.482 82.4339 60.5303C82.5675 60.5758 82.7081 60.5985 82.8558 60.5985C82.9666 60.5985 83.0575 60.5928 83.1285 60.5814C83.1996 60.5672 83.2564 60.5559 83.299 60.5473L83.5035 61.4508C83.4354 61.4763 83.3402 61.5019 83.218 61.5275C83.0959 61.5559 82.941 61.5701 82.7535 61.5701C82.4695 61.5701 82.191 61.509 81.9183 61.3868C81.6484 61.2647 81.424 61.0786 81.245 60.8286C81.0689 60.5786 80.9808 60.2633 80.9808 59.8826V53.3712Z" fill="#32B6E4"/>
<path d="M84.897 61.4848V54.9394H85.8686V55.928H85.9368C86.0561 55.6042 86.272 55.3414 86.5845 55.1397C86.897 54.938 87.2493 54.8371 87.6413 54.8371C87.7152 54.8371 87.8075 54.8385 87.9183 54.8414C88.0291 54.8442 88.1129 54.8485 88.1697 54.8542V55.8769C88.1357 55.8684 88.0575 55.8556 87.9354 55.8385C87.8161 55.8187 87.6896 55.8087 87.5561 55.8087C87.2379 55.8087 86.9538 55.8755 86.7038 56.009C86.4567 56.1397 86.2607 56.3215 86.1158 56.5545C85.9737 56.7846 85.9027 57.0473 85.9027 57.3428V61.4848H84.897Z" fill="#32B6E4"/>
<path d="M91.288 61.6383C90.8732 61.6383 90.4968 61.5601 90.1587 61.4039C89.8207 61.2448 89.5522 61.0161 89.3533 60.7178C89.1545 60.4167 89.055 60.053 89.055 59.6269C89.055 59.2519 89.1289 58.9479 89.2766 58.715C89.4244 58.4792 89.6218 58.2945 89.869 58.161C90.1161 58.0275 90.3888 57.928 90.6871 57.8627C90.9883 57.7945 91.2908 57.7405 91.5948 57.7008C91.9925 57.6496 92.315 57.6113 92.5621 57.5857C92.8121 57.5573 92.994 57.5104 93.1076 57.4451C93.2241 57.3797 93.2823 57.2661 93.2823 57.1042V57.0701C93.2823 56.6496 93.1673 56.3229 92.9371 56.09C92.7099 55.857 92.3647 55.7405 91.9016 55.7405C91.4215 55.7405 91.0451 55.8456 90.7724 56.0559C90.4996 56.2661 90.3079 56.4905 90.1971 56.7292L89.2425 56.3883C89.413 55.9905 89.6403 55.6809 89.9244 55.4593C90.2113 55.2348 90.5238 55.0786 90.8619 54.9905C91.2028 54.8996 91.538 54.8542 91.8675 54.8542C92.0778 54.8542 92.3192 54.8797 92.592 54.9309C92.8675 54.9792 93.1332 55.08 93.3888 55.2334C93.6474 55.3868 93.8619 55.6184 94.0323 55.928C94.2028 56.2377 94.288 56.6525 94.288 57.1723V61.4848H93.2823V60.5985H93.2312C93.163 60.7405 93.0494 60.8925 92.8903 61.0545C92.7312 61.2164 92.5195 61.3542 92.2553 61.4678C91.9911 61.5814 91.6687 61.6383 91.288 61.6383ZM91.4414 60.7348C91.8391 60.7348 92.1744 60.6567 92.4471 60.5005C92.7227 60.3442 92.93 60.1425 93.0692 59.8954C93.2113 59.6482 93.2823 59.3883 93.2823 59.1155V58.1951C93.2397 58.2462 93.1459 58.2931 93.0011 58.3357C92.859 58.3755 92.6942 58.411 92.5067 58.4422C92.3221 58.4706 92.1417 58.4962 91.9656 58.5189C91.7923 58.5388 91.6516 58.5559 91.5437 58.5701C91.2823 58.6042 91.038 58.6596 90.8107 58.7363C90.5863 58.8101 90.4045 58.9223 90.2653 59.0729C90.1289 59.2206 90.0607 59.4223 90.0607 59.678C90.0607 60.0275 90.19 60.2917 90.4485 60.4706C90.7099 60.6468 91.0408 60.7348 91.4414 60.7348Z" fill="#32B6E4"/>
<path d="M98.9702 54.9394V55.7917H95.5781V54.9394H98.9702ZM96.5668 53.3712H97.5724V59.6098C97.5724 59.8939 97.6136 60.107 97.696 60.2491C97.7812 60.3883 97.8892 60.482 98.0199 60.5303C98.1534 60.5758 98.294 60.5985 98.4418 60.5985C98.5526 60.5985 98.6435 60.5928 98.7145 60.5814C98.7855 60.5672 98.8423 60.5559 98.8849 60.5473L99.0895 61.4508C99.0213 61.4763 98.9261 61.5019 98.804 61.5275C98.6818 61.5559 98.527 61.5701 98.3395 61.5701C98.0554 61.5701 97.777 61.509 97.5043 61.3868C97.2344 61.2647 97.0099 61.0786 96.831 60.8286C96.6548 60.5786 96.5668 60.2633 96.5668 59.8826V53.3712Z" fill="#32B6E4"/>
<path d="M103.157 61.6212C102.526 61.6212 101.982 61.482 101.525 61.2036C101.07 60.9223 100.719 60.5303 100.472 60.0275C100.228 59.5218 100.106 58.9337 100.106 58.2633C100.106 57.5928 100.228 57.0019 100.472 56.4905C100.719 55.9763 101.063 55.5758 101.504 55.2888C101.947 54.9991 102.464 54.8542 103.055 54.8542C103.396 54.8542 103.732 54.911 104.065 55.0246C104.397 55.1383 104.7 55.3229 104.972 55.5786C105.245 55.8314 105.462 56.1667 105.624 56.5843C105.786 57.0019 105.867 57.5161 105.867 58.1269V58.553H100.822V57.6837H104.844C104.844 57.3144 104.771 56.9848 104.623 56.6951C104.478 56.4053 104.271 56.1766 104.001 56.009C103.734 55.8414 103.418 55.7576 103.055 55.7576C102.654 55.7576 102.308 55.857 102.015 56.0559C101.725 56.2519 101.502 56.5076 101.346 56.8229C101.19 57.1383 101.112 57.4763 101.112 57.8371V58.4167C101.112 58.911 101.197 59.33 101.367 59.6738C101.54 60.0147 101.781 60.2746 102.087 60.4536C102.394 60.6297 102.751 60.7178 103.157 60.7178C103.421 60.7178 103.66 60.6809 103.873 60.607C104.089 60.5303 104.275 60.4167 104.431 60.2661C104.587 60.1127 104.708 59.9223 104.793 59.6951L105.765 59.9678C105.663 60.2973 105.491 60.5871 105.249 60.8371C105.008 61.0843 104.71 61.2775 104.354 61.4167C103.999 61.553 103.6 61.6212 103.157 61.6212Z" fill="#32B6E4"/>
<path d="M110.039 64.0758C109.553 64.0758 109.136 64.0133 108.786 63.8883C108.437 63.7661 108.146 63.6042 107.913 63.4025C107.683 63.2036 107.499 62.9905 107.363 62.7633L108.164 62.2008C108.255 62.3201 108.37 62.4564 108.509 62.6098C108.648 62.7661 108.839 62.901 109.08 63.0147C109.325 63.1312 109.644 63.1894 110.039 63.1894C110.567 63.1894 111.004 63.0616 111.347 62.8059C111.691 62.5502 111.863 62.1496 111.863 61.6042V60.2746H111.778C111.704 60.3939 111.599 60.5417 111.462 60.7178C111.329 60.8911 111.136 61.0459 110.883 61.1823C110.633 61.3158 110.295 61.3826 109.869 61.3826C109.34 61.3826 108.866 61.2576 108.445 61.0076C108.028 60.7576 107.697 60.3939 107.452 59.9167C107.211 59.4394 107.09 58.8598 107.09 58.178C107.09 57.5076 107.208 56.9238 107.444 56.4266C107.68 55.9266 108.008 55.5402 108.428 55.2675C108.849 54.9919 109.335 54.8542 109.886 54.8542C110.312 54.8542 110.65 54.9252 110.9 55.0672C111.153 55.2064 111.346 55.3655 111.479 55.5445C111.616 55.7206 111.721 55.8655 111.795 55.9792H111.897V54.9394H112.869V61.6723C112.869 62.2348 112.741 62.6922 112.485 63.0445C112.232 63.3996 111.891 63.6596 111.462 63.8243C111.036 63.992 110.562 64.0758 110.039 64.0758ZM110.005 60.4792C110.408 60.4792 110.749 60.3868 111.028 60.2022C111.306 60.0175 111.518 59.7519 111.663 59.4053C111.808 59.0587 111.88 58.6439 111.88 58.161C111.88 57.6894 111.809 57.2732 111.667 56.9124C111.525 56.5516 111.315 56.2689 111.036 56.0644C110.758 55.8598 110.414 55.7576 110.005 55.7576C109.579 55.7576 109.224 55.8655 108.94 56.0814C108.658 56.2973 108.447 56.5871 108.305 56.9508C108.165 57.3144 108.096 57.7178 108.096 58.161C108.096 58.6155 108.167 59.0175 108.309 59.367C108.454 59.7135 108.667 59.9863 108.948 60.1851C109.232 60.3812 109.585 60.4792 110.005 60.4792Z" fill="#32B6E4"/>
<path d="M115.357 63.9394C115.187 63.9394 115.035 63.9252 114.901 63.8968C114.768 63.8712 114.675 63.8456 114.624 63.8201L114.88 62.9337C115.124 62.9962 115.34 63.0189 115.528 63.0019C115.715 62.9848 115.881 62.901 116.026 62.7505C116.174 62.6027 116.309 62.3627 116.431 62.0303L116.619 61.5189L114.198 54.9394H115.289L117.096 60.1553H117.164L118.971 54.9394H120.062L117.283 62.4394C117.158 62.7775 117.004 63.0573 116.819 63.2789C116.634 63.5033 116.42 63.6695 116.175 63.7775C115.934 63.8854 115.661 63.9394 115.357 63.9394Z" fill="#32B6E4"/>
<path d="M122.479 60.2917L122.411 60.7519C122.363 61.0758 122.289 61.4223 122.189 61.7917C122.093 62.161 121.992 62.509 121.887 62.8357C121.782 63.1624 121.695 63.4223 121.627 63.6155H120.86C120.897 63.4337 120.945 63.1937 121.005 62.8954C121.064 62.5971 121.124 62.2633 121.184 61.8939C121.246 61.5275 121.297 61.1525 121.337 60.7689L121.388 60.2917H122.479Z" fill="#32B6E4"/>
<path d="M130.189 61.6212C129.643 61.6212 129.162 61.4834 128.744 61.2079C128.327 60.9294 128 60.5374 127.764 60.0317C127.528 59.5232 127.411 58.9223 127.411 58.2292C127.411 57.5417 127.528 56.9451 127.764 56.4394C128 55.9337 128.328 55.5431 128.749 55.2675C129.169 54.9919 129.655 54.8542 130.206 54.8542C130.632 54.8542 130.969 54.9252 131.216 55.0672C131.466 55.2064 131.656 55.3655 131.787 55.5445C131.92 55.7206 132.024 55.8655 132.098 55.9792H132.183V52.7576H133.189V61.4848H132.217V60.4792H132.098C132.024 60.5985 131.919 60.7491 131.783 60.9309C131.646 61.1098 131.452 61.2704 131.199 61.4124C130.946 61.5516 130.609 61.6212 130.189 61.6212ZM130.325 60.7178C130.729 60.7178 131.07 60.6127 131.348 60.4025C131.626 60.1894 131.838 59.8954 131.983 59.5204C132.128 59.1425 132.2 58.7064 132.2 58.2121C132.2 57.7235 132.129 57.2959 131.987 56.9295C131.845 56.5601 131.635 56.2732 131.357 56.0687C131.078 55.8613 130.734 55.7576 130.325 55.7576C129.899 55.7576 129.544 55.867 129.26 56.0857C128.979 56.3016 128.767 56.5956 128.625 56.9678C128.486 57.3371 128.416 57.7519 128.416 58.2121C128.416 58.678 128.487 59.1013 128.629 59.482C128.774 59.8598 128.987 60.161 129.268 60.3854C129.553 60.607 129.905 60.7178 130.325 60.7178Z" fill="#32B6E4"/>
<path d="M137.915 61.6212C137.284 61.6212 136.74 61.482 136.283 61.2036C135.828 60.9223 135.477 60.5303 135.23 60.0275C134.986 59.5218 134.864 58.9337 134.864 58.2633C134.864 57.5928 134.986 57.0019 135.23 56.4905C135.477 55.9763 135.821 55.5758 136.261 55.2888C136.705 54.9991 137.222 54.8542 137.812 54.8542C138.153 54.8542 138.49 54.911 138.822 55.0246C139.155 55.1383 139.457 55.3229 139.73 55.5786C140.003 55.8314 140.22 56.1667 140.382 56.5843C140.544 57.0019 140.625 57.5161 140.625 58.1269V58.553H135.58V57.6837H139.602C139.602 57.3144 139.528 56.9848 139.381 56.6951C139.236 56.4053 139.028 56.1766 138.759 56.009C138.491 55.8414 138.176 55.7576 137.812 55.7576C137.412 55.7576 137.065 55.857 136.773 56.0559C136.483 56.2519 136.26 56.5076 136.104 56.8229C135.947 57.1383 135.869 57.4763 135.869 57.8371V58.4167C135.869 58.911 135.955 59.33 136.125 59.6738C136.298 60.0147 136.538 60.2746 136.845 60.4536C137.152 60.6297 137.509 60.7178 137.915 60.7178C138.179 60.7178 138.418 60.6809 138.631 60.607C138.847 60.5303 139.033 60.4167 139.189 60.2661C139.345 60.1127 139.466 59.9223 139.551 59.6951L140.523 59.9678C140.42 60.2973 140.249 60.5871 140.007 60.8371C139.766 61.0843 139.467 61.2775 139.112 61.4167C138.757 61.553 138.358 61.6212 137.915 61.6212Z" fill="#32B6E4"/>
<path d="M146.791 56.4053L145.888 56.661C145.831 56.5104 145.747 56.3641 145.636 56.2221C145.528 56.0772 145.381 55.9579 145.193 55.8641C145.006 55.7704 144.766 55.7235 144.473 55.7235C144.072 55.7235 143.739 55.8158 143.472 56.0005C143.207 56.1823 143.075 56.4138 143.075 56.6951C143.075 56.9451 143.166 57.1425 143.348 57.2874C143.53 57.4323 143.814 57.553 144.2 57.6496L145.172 57.8883C145.757 58.0303 146.193 58.2476 146.48 58.5402C146.767 58.83 146.911 59.2036 146.911 59.661C146.911 60.036 146.803 60.3712 146.587 60.6667C146.374 60.9621 146.075 61.1951 145.692 61.3655C145.308 61.536 144.862 61.6212 144.354 61.6212C143.686 61.6212 143.134 61.4763 142.696 61.1866C142.259 60.8968 141.982 60.4735 141.865 59.9167L142.82 59.678C142.911 60.0303 143.082 60.2945 143.335 60.4706C143.591 60.6468 143.925 60.7348 144.337 60.7348C144.805 60.7348 145.178 60.6354 145.453 60.4366C145.732 60.2348 145.871 59.9934 145.871 59.7121C145.871 59.4848 145.791 59.2945 145.632 59.1411C145.473 58.9848 145.229 58.8684 144.899 58.7917L143.808 58.536C143.209 58.3939 142.768 58.1738 142.487 57.8755C142.209 57.5743 142.07 57.1979 142.07 56.7462C142.07 56.3769 142.173 56.0502 142.381 55.7661C142.591 55.482 142.876 55.259 143.237 55.0971C143.601 54.9351 144.013 54.8542 144.473 54.8542C145.121 54.8542 145.629 54.9962 145.999 55.2803C146.371 55.5644 146.635 55.9394 146.791 56.4053Z" fill="#32B6E4"/>
<path d="M148.424 61.4848V54.9394H149.43V61.4848H148.424ZM148.936 53.8485C148.74 53.8485 148.571 53.7817 148.429 53.6482C148.289 53.5147 148.22 53.3542 148.22 53.1667C148.22 52.9792 148.289 52.8187 148.429 52.6851C148.571 52.5516 148.74 52.4848 148.936 52.4848C149.132 52.4848 149.299 52.5516 149.439 52.6851C149.581 52.8187 149.652 52.9792 149.652 53.1667C149.652 53.3542 149.581 53.5147 149.439 53.6482C149.299 53.7817 149.132 53.8485 148.936 53.8485Z" fill="#32B6E4"/>
<path d="M153.914 64.0758C153.428 64.0758 153.011 64.0133 152.661 63.8883C152.312 63.7661 152.021 63.6042 151.788 63.4025C151.558 63.2036 151.374 62.9905 151.238 62.7633L152.039 62.2008C152.13 62.3201 152.245 62.4564 152.384 62.6098C152.523 62.7661 152.714 62.901 152.955 63.0147C153.2 63.1312 153.519 63.1894 153.914 63.1894C154.442 63.1894 154.879 63.0616 155.222 62.8059C155.566 62.5502 155.738 62.1496 155.738 61.6042V60.2746H155.653C155.579 60.3939 155.474 60.5417 155.337 60.7178C155.204 60.8911 155.011 61.0459 154.758 61.1823C154.508 61.3158 154.17 61.3826 153.744 61.3826C153.215 61.3826 152.741 61.2576 152.32 61.0076C151.903 60.7576 151.572 60.3939 151.327 59.9167C151.086 59.4394 150.965 58.8598 150.965 58.178C150.965 57.5076 151.083 56.9238 151.319 56.4266C151.555 55.9266 151.883 55.5402 152.303 55.2675C152.724 54.9919 153.21 54.8542 153.761 54.8542C154.187 54.8542 154.525 54.9252 154.775 55.0672C155.028 55.2064 155.221 55.3655 155.354 55.5445C155.491 55.7206 155.596 55.8655 155.67 55.9792H155.772V54.9394H156.744V61.6723C156.744 62.2348 156.616 62.6922 156.36 63.0445C156.107 63.3996 155.766 63.6596 155.337 63.8243C154.911 63.992 154.437 64.0758 153.914 64.0758ZM153.88 60.4792C154.283 60.4792 154.624 60.3868 154.903 60.2022C155.181 60.0175 155.393 59.7519 155.538 59.4053C155.683 59.0587 155.755 58.6439 155.755 58.161C155.755 57.6894 155.684 57.2732 155.542 56.9124C155.4 56.5516 155.19 56.2689 154.911 56.0644C154.633 55.8598 154.289 55.7576 153.88 55.7576C153.454 55.7576 153.099 55.8655 152.815 56.0814C152.533 56.2973 152.322 56.5871 152.18 56.9508C152.04 57.3144 151.971 57.7178 151.971 58.161C151.971 58.6155 152.042 59.0175 152.184 59.367C152.329 59.7135 152.542 59.9863 152.823 60.1851C153.107 60.3812 153.46 60.4792 153.88 60.4792Z" fill="#32B6E4"/>
<path d="M159.59 57.5473V61.4848H158.585V54.9394H159.556V55.9621H159.641C159.795 55.6297 160.028 55.3627 160.34 55.161C160.653 54.9564 161.056 54.8542 161.55 54.8542C161.994 54.8542 162.381 54.9451 162.714 55.1269C163.046 55.3059 163.305 55.5786 163.489 55.9451C163.674 56.3087 163.766 56.7689 163.766 57.3258V61.4848H162.761V57.3939C162.761 56.8797 162.627 56.4792 162.36 56.1922C162.093 55.9025 161.727 55.7576 161.261 55.7576C160.94 55.7576 160.653 55.8272 160.4 55.9664C160.15 56.1056 159.952 56.3087 159.808 56.5758C159.663 56.8428 159.59 57.1667 159.59 57.5473Z" fill="#32B6E4"/>
<path d="M171.451 61.6042C170.877 61.6042 170.382 61.4991 169.968 61.2888C169.553 61.0786 169.233 60.7902 169.009 60.4238C168.784 60.0573 168.672 59.6383 168.672 59.1667C168.672 58.803 168.749 58.4806 168.902 58.1993C169.059 57.9152 169.273 57.6525 169.546 57.411C169.821 57.1667 170.138 56.9224 170.496 56.678L171.757 55.7405C172.005 55.5786 172.202 55.4053 172.35 55.2206C172.5 55.036 172.576 54.7945 172.576 54.4962C172.576 54.2746 172.478 54.0601 172.282 53.8527C172.088 53.6454 171.834 53.5417 171.519 53.5417C171.297 53.5417 171.101 53.5985 170.931 53.7121C170.763 53.8229 170.631 53.965 170.534 54.1383C170.441 54.3087 170.394 54.4848 170.394 54.6667C170.394 54.8712 170.449 55.0786 170.56 55.2888C170.674 55.4962 170.817 55.7093 170.99 55.928C171.167 56.1439 171.348 56.3655 171.536 56.5928L175.542 61.4848H174.331L171.024 57.4962C170.718 57.1269 170.439 56.7917 170.189 56.4905C169.939 56.1894 169.74 55.8925 169.593 55.5999C169.445 55.3073 169.371 54.9905 169.371 54.6496C169.371 54.2576 169.458 53.9138 169.631 53.6184C169.807 53.3201 170.053 53.0885 170.368 52.9238C170.686 52.7562 171.059 52.6723 171.485 52.6723C171.922 52.6723 172.299 52.7576 172.614 52.928C172.929 53.0956 173.172 53.3187 173.343 53.5971C173.513 53.8726 173.598 54.1723 173.598 54.4962C173.598 54.9138 173.495 55.276 173.287 55.5829C173.08 55.8897 172.797 56.1752 172.439 56.4394L170.701 57.7348C170.309 58.0246 170.043 58.3059 169.904 58.5786C169.765 58.8513 169.695 59.0473 169.695 59.1667C169.695 59.4394 169.766 59.6937 169.908 59.9295C170.05 60.1652 170.25 60.3556 170.509 60.5005C170.767 60.6454 171.07 60.7178 171.417 60.7178C171.746 60.7178 172.067 60.6482 172.38 60.509C172.692 60.3669 172.975 60.1624 173.228 59.8954C173.483 59.6283 173.685 59.3073 173.833 58.9323C173.983 58.5573 174.059 58.1354 174.059 57.6667H175.03C175.03 58.2462 174.963 58.7192 174.83 59.0857C174.696 59.4522 174.546 59.7391 174.378 59.9465C174.211 60.1539 174.076 60.3087 173.973 60.411C173.939 60.4536 173.908 60.4962 173.88 60.5388C173.851 60.5814 173.82 60.6241 173.786 60.6667C173.505 60.982 173.149 61.2178 172.721 61.3741C172.292 61.5275 171.868 61.6042 171.451 61.6042Z" fill="#32B6E4"/>
<path d="M182.501 61.6212C181.956 61.6212 181.474 61.4834 181.057 61.2079C180.639 60.9294 180.312 60.5374 180.077 60.0317C179.841 59.5232 179.723 58.9223 179.723 58.2292C179.723 57.5417 179.841 56.9451 180.077 56.4394C180.312 55.9337 180.641 55.5431 181.061 55.2675C181.482 54.9919 181.967 54.8542 182.518 54.8542C182.945 54.8542 183.281 54.9252 183.528 55.0672C183.778 55.2064 183.969 55.3655 184.099 55.5445C184.233 55.7206 184.337 55.8655 184.411 55.9792H184.496V52.7576H185.501V61.4848H184.53V60.4792H184.411C184.337 60.5985 184.232 60.7491 184.095 60.9309C183.959 61.1098 183.764 61.2704 183.511 61.4124C183.259 61.5516 182.922 61.6212 182.501 61.6212ZM182.638 60.7178C183.041 60.7178 183.382 60.6127 183.661 60.4025C183.939 60.1894 184.151 59.8954 184.295 59.5204C184.44 59.1425 184.513 58.7064 184.513 58.2121C184.513 57.7235 184.442 57.2959 184.3 56.9295C184.158 56.5601 183.947 56.2732 183.669 56.0687C183.391 55.8613 183.047 55.7576 182.638 55.7576C182.212 55.7576 181.857 55.867 181.572 56.0857C181.291 56.3016 181.08 56.5956 180.937 56.9678C180.798 57.3371 180.729 57.7519 180.729 58.2121C180.729 58.678 180.8 59.1013 180.942 59.482C181.087 59.8598 181.3 60.161 181.581 60.3854C181.865 60.607 182.217 60.7178 182.638 60.7178Z" fill="#32B6E4"/>
<path d="M190.227 61.6212C189.597 61.6212 189.053 61.482 188.595 61.2036C188.141 60.9223 187.79 60.5303 187.543 60.0275C187.298 59.5218 187.176 58.9337 187.176 58.2633C187.176 57.5928 187.298 57.0019 187.543 56.4905C187.79 55.9763 188.134 55.5758 188.574 55.2888C189.017 54.9991 189.534 54.8542 190.125 54.8542C190.466 54.8542 190.803 54.911 191.135 55.0246C191.467 55.1383 191.77 55.3229 192.043 55.5786C192.315 55.8314 192.533 56.1667 192.695 56.5843C192.857 57.0019 192.937 57.5161 192.937 58.1269V58.553H187.892V57.6837H191.915C191.915 57.3144 191.841 56.9848 191.693 56.6951C191.548 56.4053 191.341 56.1766 191.071 56.009C190.804 55.8414 190.489 55.7576 190.125 55.7576C189.724 55.7576 189.378 55.857 189.085 56.0559C188.795 56.2519 188.572 56.5076 188.416 56.8229C188.26 57.1383 188.182 57.4763 188.182 57.8371V58.4167C188.182 58.911 188.267 59.33 188.437 59.6738C188.611 60.0147 188.851 60.2746 189.158 60.4536C189.464 60.6297 189.821 60.7178 190.227 60.7178C190.491 60.7178 190.73 60.6809 190.943 60.607C191.159 60.5303 191.345 60.4167 191.501 60.2661C191.658 60.1127 191.778 59.9223 191.864 59.6951L192.835 59.9678C192.733 60.2973 192.561 60.5871 192.32 60.8371C192.078 61.0843 191.78 61.2775 191.425 61.4167C191.07 61.553 190.67 61.6212 190.227 61.6212Z" fill="#32B6E4"/>
<path d="M199.62 54.9394L197.2 61.4848H196.177L193.757 54.9394H194.848L196.654 60.1553H196.723L198.529 54.9394H199.62Z" fill="#32B6E4"/>
<path d="M203.458 61.6212C202.827 61.6212 202.283 61.482 201.826 61.2036C201.371 60.9223 201.02 60.5303 200.773 60.0275C200.529 59.5218 200.407 58.9337 200.407 58.2633C200.407 57.5928 200.529 57.0019 200.773 56.4905C201.02 55.9763 201.364 55.5758 201.804 55.2888C202.248 54.9991 202.765 54.8542 203.355 54.8542C203.696 54.8542 204.033 54.911 204.365 55.0246C204.698 55.1383 205 55.3229 205.273 55.5786C205.546 55.8314 205.763 56.1667 205.925 56.5843C206.087 57.0019 206.168 57.5161 206.168 58.1269V58.553H201.123V57.6837H205.145C205.145 57.3144 205.071 56.9848 204.924 56.6951C204.779 56.4053 204.571 56.1766 204.301 56.009C204.034 55.8414 203.719 55.7576 203.355 55.7576C202.955 55.7576 202.608 55.857 202.316 56.0559C202.026 56.2519 201.803 56.5076 201.647 56.8229C201.49 57.1383 201.412 57.4763 201.412 57.8371V58.4167C201.412 58.911 201.497 59.33 201.668 59.6738C201.841 60.0147 202.081 60.2746 202.388 60.4536C202.695 60.6297 203.051 60.7178 203.458 60.7178C203.722 60.7178 203.961 60.6809 204.174 60.607C204.39 60.5303 204.576 60.4167 204.732 60.2661C204.888 60.1127 205.009 59.9223 205.094 59.6951L206.066 59.9678C205.963 60.2973 205.792 60.5871 205.55 60.8371C205.309 61.0843 205.01 61.2775 204.655 61.4167C204.3 61.553 203.901 61.6212 203.458 61.6212Z" fill="#32B6E4"/>
<path d="M208.703 52.7576V61.4848H207.698V52.7576H208.703Z" fill="#32B6E4"/>
<path d="M213.205 61.6212C212.614 61.6212 212.095 61.4806 211.649 61.1993C211.206 60.9181 210.859 60.5246 210.609 60.0189C210.362 59.5133 210.239 58.9223 210.239 58.2462C210.239 57.5644 210.362 56.9692 210.609 56.4607C210.859 55.9522 211.206 55.5573 211.649 55.276C212.095 54.9948 212.614 54.8542 213.205 54.8542C213.795 54.8542 214.312 54.9948 214.756 55.276C215.202 55.5573 215.548 55.9522 215.795 56.4607C216.045 56.9692 216.17 57.5644 216.17 58.2462C216.17 58.9223 216.045 59.5133 215.795 60.0189C215.548 60.5246 215.202 60.9181 214.756 61.1993C214.312 61.4806 213.795 61.6212 213.205 61.6212ZM213.205 60.7178C213.653 60.7178 214.023 60.6027 214.312 60.3726C214.602 60.1425 214.817 59.84 214.956 59.465C215.095 59.09 215.165 58.6837 215.165 58.2462C215.165 57.8087 215.095 57.401 214.956 57.0232C214.817 56.6454 214.602 56.34 214.312 56.107C214.023 55.8741 213.653 55.7576 213.205 55.7576C212.756 55.7576 212.386 55.8741 212.097 56.107C211.807 56.34 211.592 56.6454 211.453 57.0232C211.314 57.401 211.244 57.8087 211.244 58.2462C211.244 58.6837 211.314 59.09 211.453 59.465C211.592 59.84 211.807 60.1425 212.097 60.3726C212.386 60.6027 212.756 60.7178 213.205 60.7178Z" fill="#32B6E4"/>
<path d="M217.706 63.9394V54.9394H218.677V55.9792H218.797C218.87 55.8655 218.973 55.7206 219.103 55.5445C219.237 55.3655 219.427 55.2064 219.674 55.0672C219.924 54.9252 220.262 54.8542 220.689 54.8542C221.24 54.8542 221.725 54.9919 222.146 55.2675C222.566 55.5431 222.895 55.9337 223.13 56.4394C223.366 56.9451 223.484 57.5417 223.484 58.2292C223.484 58.9223 223.366 59.5232 223.13 60.0317C222.895 60.5374 222.568 60.9294 222.15 61.2079C221.733 61.4834 221.251 61.6212 220.706 61.6212C220.285 61.6212 219.948 61.5516 219.696 61.4124C219.443 61.2704 219.248 61.1098 219.112 60.9309C218.975 60.7491 218.87 60.5985 218.797 60.4792H218.711V63.9394H217.706ZM218.694 58.2121C218.694 58.7064 218.767 59.1425 218.912 59.5204C219.056 59.8954 219.268 60.1894 219.547 60.4025C219.825 60.6127 220.166 60.7178 220.569 60.7178C220.99 60.7178 221.341 60.607 221.622 60.3854C221.906 60.161 222.119 59.8598 222.261 59.482C222.406 59.1013 222.478 58.678 222.478 58.2121C222.478 57.7519 222.407 57.3371 222.265 56.9678C222.126 56.5956 221.914 56.3016 221.63 56.0857C221.349 55.867 220.995 55.7576 220.569 55.7576C220.16 55.7576 219.816 55.8613 219.538 56.0687C219.26 56.2732 219.049 56.5601 218.907 56.9295C218.765 57.2959 218.694 57.7235 218.694 58.2121Z" fill="#32B6E4"/>
<path d="M225.018 61.4848V54.9394H225.99V55.9621H226.075C226.211 55.6127 226.431 55.3414 226.735 55.1482C227.039 54.9522 227.404 54.8542 227.831 54.8542C228.262 54.8542 228.622 54.9522 228.909 55.1482C229.198 55.3414 229.424 55.6127 229.586 55.9621H229.654C229.822 55.6241 230.073 55.3556 230.409 55.1567C230.744 54.955 231.146 54.8542 231.615 54.8542C232.2 54.8542 232.679 55.0374 233.051 55.4039C233.423 55.7675 233.609 56.3343 233.609 57.1042V61.4848H232.603V57.1042C232.603 56.6212 232.471 56.276 232.207 56.0687C231.943 55.8613 231.632 55.7576 231.274 55.7576C230.814 55.7576 230.457 55.8968 230.204 56.1752C229.951 56.4508 229.825 56.8002 229.825 57.2235V61.4848H228.802V57.0019C228.802 56.6297 228.681 56.33 228.44 56.1027C228.198 55.8726 227.887 55.7576 227.507 55.7576C227.245 55.7576 227.001 55.8272 226.774 55.9664C226.549 56.1056 226.368 56.2988 226.228 56.5459C226.092 56.7902 226.024 57.0729 226.024 57.3939V61.4848H225.018Z" fill="#32B6E4"/>
<path d="M238.192 61.6212C237.561 61.6212 237.017 61.482 236.56 61.2036C236.105 60.9223 235.755 60.5303 235.507 60.0275C235.263 59.5218 235.141 58.9337 235.141 58.2633C235.141 57.5928 235.263 57.0019 235.507 56.4905C235.755 55.9763 236.098 55.5758 236.539 55.2888C236.982 54.9991 237.499 54.8542 238.09 54.8542C238.431 54.8542 238.767 54.911 239.1 55.0246C239.432 55.1383 239.735 55.3229 240.007 55.5786C240.28 55.8314 240.497 56.1667 240.659 56.5843C240.821 57.0019 240.902 57.5161 240.902 58.1269V58.553H235.857V57.6837H239.88C239.88 57.3144 239.806 56.9848 239.658 56.6951C239.513 56.4053 239.306 56.1766 239.036 56.009C238.769 55.8414 238.453 55.7576 238.09 55.7576C237.689 55.7576 237.343 55.857 237.05 56.0559C236.76 56.2519 236.537 56.5076 236.381 56.8229C236.225 57.1383 236.147 57.4763 236.147 57.8371V58.4167C236.147 58.911 236.232 59.33 236.402 59.6738C236.576 60.0147 236.816 60.2746 237.122 60.4536C237.429 60.6297 237.786 60.7178 238.192 60.7178C238.456 60.7178 238.695 60.6809 238.908 60.607C239.124 60.5303 239.31 60.4167 239.466 60.2661C239.622 60.1127 239.743 59.9223 239.828 59.6951L240.8 59.9678C240.698 60.2973 240.526 60.5871 240.284 60.8371C240.043 61.0843 239.745 61.2775 239.39 61.4167C239.034 61.553 238.635 61.6212 238.192 61.6212Z" fill="#32B6E4"/>
<path d="M243.438 57.5473V61.4848H242.432V54.9394H243.404V55.9621H243.489C243.642 55.6297 243.875 55.3627 244.188 55.161C244.5 54.9564 244.904 54.8542 245.398 54.8542C245.841 54.8542 246.229 54.9451 246.561 55.1269C246.894 55.3059 247.152 55.5786 247.337 55.9451C247.522 56.3087 247.614 56.7689 247.614 57.3258V61.4848H246.608V57.3939C246.608 56.8797 246.475 56.4792 246.208 56.1922C245.941 55.9025 245.574 55.7576 245.108 55.7576C244.787 55.7576 244.5 55.8272 244.247 55.9664C243.997 56.1056 243.8 56.3087 243.655 56.5758C243.51 56.8428 243.438 57.1667 243.438 57.5473Z" fill="#32B6E4"/>
<path d="M252.298 54.9394V55.7917H248.906V54.9394H252.298ZM249.895 53.3712H250.901V59.6098C250.901 59.8939 250.942 60.107 251.024 60.2491C251.109 60.3883 251.217 60.482 251.348 60.5303C251.482 60.5758 251.622 60.5985 251.77 60.5985C251.881 60.5985 251.972 60.5928 252.043 60.5814C252.114 60.5672 252.17 60.5559 252.213 60.5473L252.418 61.4508C252.349 61.4763 252.254 61.5019 252.132 61.5275C252.01 61.5559 251.855 61.5701 251.668 61.5701C251.384 61.5701 251.105 61.509 250.832 61.3868C250.562 61.2647 250.338 61.0786 250.159 60.8286C249.983 60.5786 249.895 60.2633 249.895 59.8826V53.3712Z" fill="#32B6E4"/>
</svg>
