<svg width="299" height="72" viewBox="0 0 299 72" fill="none" xmlns="http://www.w3.org/2000/svg">
<path d="M62.7715 53.1982L62.0996 17.3457L30.7148 0L0 18.5088L0.672852 54.3613L32.0566 71.7061L62.7715 53.1982ZM3.31055 52.7734L2.69434 19.999L30.7715 3.0791L59.4619 18.9365L60.0762 51.709L31.999 68.6279L3.31055 52.7734Z" fill="#32B6E4"/>
<path d="M81.2375 54.6053L70.158 18.2417H76.0292L83.889 46.0826H84.2678L92.033 18.2417H97.9989L105.669 45.9879H106.048L113.908 18.2417H119.779L108.7 54.6053H103.207L95.2527 26.6697H94.6845L86.7299 54.6053H81.2375Z" fill="#F49625"/>
<path d="M137.866 55.4576C135.562 55.4576 133.471 55.0236 131.593 54.1555C129.714 53.2717 128.223 52.0012 127.118 50.344C126.013 48.671 125.461 46.6508 125.461 44.2834C125.461 42.2 125.871 40.5113 126.692 39.2171C127.513 37.9071 128.61 36.8812 129.983 36.1394C131.356 35.3976 132.871 34.8452 134.528 34.4822C136.201 34.1035 137.882 33.8036 139.571 33.5826C141.78 33.2985 143.572 33.0855 144.945 32.9434C146.334 32.7856 147.344 32.5252 147.975 32.1622C148.622 31.7992 148.946 31.1678 148.946 30.2682V30.0788C148.946 27.743 148.307 25.9279 147.028 24.6338C145.766 23.3396 143.848 22.6925 141.275 22.6925C138.608 22.6925 136.517 23.2764 135.002 24.4444C133.487 25.6123 132.421 26.8591 131.806 28.1849L126.503 26.291C127.45 24.0814 128.712 22.361 130.291 21.13C131.885 19.8831 133.621 19.0151 135.499 18.5258C137.393 18.0208 139.255 17.7682 141.086 17.7682C142.254 17.7682 143.595 17.9103 145.111 18.1944C146.642 18.4627 148.117 19.023 149.538 19.8752C150.974 20.7275 152.166 22.0138 153.113 23.7341C154.059 25.4545 154.533 27.7588 154.533 30.647V54.6053H148.946V49.6811H148.662C148.283 50.4702 147.652 51.3146 146.768 52.2142C145.884 53.1139 144.708 53.8793 143.24 54.5107C141.773 55.142 139.981 55.4576 137.866 55.4576ZM138.719 50.4387C140.928 50.4387 142.791 50.0047 144.306 49.1366C145.837 48.2685 146.989 47.148 147.762 45.7749C148.551 44.4017 148.946 42.9576 148.946 41.4425V36.3288C148.709 36.6129 148.188 36.8733 147.383 37.1101C146.594 37.331 145.679 37.5283 144.637 37.7019C143.611 37.8598 142.609 38.0018 141.631 38.1281C140.668 38.2386 139.887 38.3333 139.287 38.4122C137.835 38.6016 136.477 38.9093 135.215 39.3355C133.968 39.7458 132.958 40.3692 132.184 41.2057C131.427 42.0264 131.048 43.147 131.048 44.5675C131.048 46.5088 131.766 47.9766 133.202 48.9709C134.655 49.9494 136.493 50.4387 138.719 50.4387Z" fill="#F49625"/>
<path d="M180.545 18.2417V22.9766H161.7V18.2417H180.545ZM167.193 9.52959H172.78V44.1887C172.78 45.767 173.009 46.9507 173.466 47.7398C173.94 48.5132 174.54 49.034 175.266 49.3023C176.007 49.5548 176.789 49.6811 177.609 49.6811C178.225 49.6811 178.73 49.6495 179.125 49.5864C179.519 49.5075 179.835 49.4444 180.072 49.397L181.208 54.416C180.829 54.558 180.3 54.7 179.622 54.8421C178.943 54.9999 178.083 55.0788 177.041 55.0788C175.463 55.0788 173.916 54.7395 172.401 54.0608C170.902 53.3822 169.655 52.3484 168.661 50.9595C167.682 49.5706 167.193 47.8187 167.193 45.7038V9.52959Z" fill="#F49625"/>
<path d="M199.65 55.4576C197.346 55.4576 195.255 55.0236 193.376 54.1555C191.498 53.2717 190.007 52.0012 188.902 50.344C187.797 48.671 187.245 46.6508 187.245 44.2834C187.245 42.2 187.655 40.5113 188.476 39.2171C189.297 37.9071 190.394 36.8812 191.767 36.1394C193.14 35.3976 194.655 34.8452 196.312 34.4822C197.985 34.1035 199.666 33.8036 201.355 33.5826C203.564 33.2985 205.356 33.0855 206.729 32.9434C208.118 32.7856 209.128 32.5252 209.759 32.1622C210.406 31.7992 210.73 31.1678 210.73 30.2682V30.0788C210.73 27.743 210.091 25.9279 208.812 24.6338C207.549 23.3396 205.632 22.6925 203.059 22.6925C200.392 22.6925 198.301 23.2764 196.786 24.4444C195.27 25.6123 194.205 26.8591 193.59 28.1849L188.287 26.291C189.233 24.0814 190.496 22.361 192.074 21.13C193.668 19.8831 195.405 19.0151 197.283 18.5258C199.177 18.0208 201.039 17.7682 202.87 17.7682C204.038 17.7682 205.379 17.9103 206.894 18.1944C208.425 18.4627 209.901 19.023 211.322 19.8752C212.758 20.7275 213.949 22.0138 214.896 23.7341C215.843 25.4545 216.317 27.7588 216.317 30.647V54.6053H210.73V49.6811H210.446C210.067 50.4702 209.436 51.3146 208.552 52.2142C207.668 53.1139 206.492 53.8793 205.024 54.5107C203.556 55.142 201.765 55.4576 199.65 55.4576ZM200.502 50.4387C202.712 50.4387 204.574 50.0047 206.09 49.1366C207.62 48.2685 208.773 47.148 209.546 45.7749C210.335 44.4017 210.73 42.9576 210.73 41.4425V36.3288C210.493 36.6129 209.972 36.8733 209.167 37.1101C208.378 37.331 207.463 37.5283 206.421 37.7019C205.395 37.8598 204.393 38.0018 203.414 38.1281C202.452 38.2386 201.67 38.3333 201.071 38.4122C199.619 38.6016 198.261 38.9093 196.999 39.3355C195.752 39.7458 194.742 40.3692 193.968 41.2057C193.211 42.0264 192.832 43.147 192.832 44.5675C192.832 46.5088 193.55 47.9766 194.986 48.9709C196.438 49.9494 198.277 50.4387 200.502 50.4387Z" fill="#F49625"/>
<path d="M227.272 54.6053V6.1205H232.859V24.0182H233.333C233.743 23.3869 234.311 22.582 235.037 21.6035C235.779 20.6091 236.836 19.7253 238.21 18.9519C239.598 18.1628 241.477 17.7682 243.844 17.7682C246.906 17.7682 249.605 18.5337 251.941 20.0646C254.277 21.5956 256.099 23.7657 257.409 26.575C258.719 29.3844 259.374 32.6988 259.374 36.5182C259.374 40.3692 258.719 43.7073 257.409 46.5324C256.099 49.3418 254.284 51.5198 251.964 53.0665C249.644 54.5975 246.969 55.3629 243.939 55.3629C241.603 55.3629 239.733 54.9762 238.328 54.2029C236.923 53.4137 235.842 52.522 235.085 51.5277C234.327 50.5176 233.743 49.6811 233.333 49.0182H232.67V54.6053H227.272ZM232.765 36.4235C232.765 39.1697 233.167 41.5924 233.972 43.6915C234.777 45.7749 235.953 47.4084 237.499 48.5921C239.046 49.76 240.94 50.344 243.181 50.344C245.517 50.344 247.466 49.7285 249.029 48.4974C250.607 47.2505 251.791 45.5776 252.58 43.4785C253.385 41.3636 253.787 39.0119 253.787 36.4235C253.787 33.8667 253.393 31.5624 252.604 29.5107C251.83 27.4431 250.654 25.8096 249.076 24.6101C247.514 23.3948 245.549 22.7872 243.181 22.7872C240.908 22.7872 238.999 23.3632 237.452 24.5154C235.905 25.6517 234.737 27.2458 233.948 29.2976C233.159 31.3336 232.765 33.7089 232.765 36.4235Z" fill="#F49625"/>
<path d="M283.167 55.3629C279.663 55.3629 276.641 54.5896 274.1 53.0428C271.574 51.4803 269.625 49.3023 268.252 46.5088C266.895 43.6994 266.216 40.4324 266.216 36.7076C266.216 32.9829 266.895 29.7 268.252 26.8591C269.625 24.0024 271.535 21.7771 273.981 20.183C276.444 18.5732 279.316 17.7682 282.599 17.7682C284.493 17.7682 286.363 18.0839 288.21 18.7152C290.056 19.3465 291.737 20.3724 293.252 21.7928C294.767 23.1975 295.975 25.0599 296.874 27.38C297.774 29.7 298.224 32.5567 298.224 35.95V38.3175H270.193V33.4879H292.542C292.542 31.4362 292.132 29.6053 291.311 27.9955C290.506 26.3857 289.354 25.1151 287.854 24.1839C286.371 23.2528 284.619 22.7872 282.599 22.7872C280.373 22.7872 278.448 23.3396 276.822 24.4444C275.212 25.5334 273.973 26.9538 273.105 28.7057C272.237 30.4576 271.803 32.3358 271.803 34.3402V37.5599C271.803 40.3061 272.277 42.6341 273.224 44.5438C274.187 46.4377 275.52 47.8819 277.225 48.8762C278.929 49.8547 280.91 50.344 283.167 50.344C284.635 50.344 285.961 50.1388 287.144 49.7285C288.344 49.3023 289.378 48.671 290.246 47.8345C291.114 46.9822 291.784 45.9248 292.258 44.6622L297.656 46.1773C297.087 48.0081 296.133 49.618 294.791 51.0069C293.449 52.38 291.792 53.4532 289.819 54.2266C287.847 54.9841 285.629 55.3629 283.167 55.3629Z" fill="#F49625"/>
<path d="M33.7521 35.7115L32.4188 62.3782L31.0854 35.7115H33.7521Z" fill="#32B6E4"/>
<path d="M31.7388 34.5643L54.1974 22.8229L33.0988 36.8589L31.7388 34.5643Z" fill="#32B6E4"/>
<path d="M31.8301 36.9081L6.19678 22.8228L33.0074 34.5148L31.8301 36.9081Z" fill="#32B6E4"/>
</svg>
